<svg preserveAspectRatio="none" overflow="visible" style="display: block;" width="560" height="87.3759" viewBox="0 0 560 87.3759" fill="none" xmlns="http://www.w3.org/2000/svg">
<g id="HappyRobot &#226;&#128;&#148; vector" clip-path="url(#clip0_0_313)">
<path id="Vector" d="M54.3877 50.2765C54.3877 46.1023 52.1219 42.2566 48.4708 40.2338L35.851 33.2428C32.1996 31.2199 29.9338 27.3745 29.9338 23.2002V0H1.11719V14.4486C1.11719 18.6976 3.46396 22.5991 7.21749 24.5905L19.4709 31.0911C23.2244 33.0824 25.5712 36.984 25.5712 41.2331V84.9576H54.3877V50.2765Z" fill="black"/>
<path id="Vector_2" d="M108.329 72.1657C108.329 67.951 106.019 64.0755 102.313 62.0691L89.3164 55.0341C85.6101 53.028 83.3009 49.1521 83.3009 44.9378V0H54.4844V35.7531C54.4844 39.9677 56.7935 43.8436 60.4998 45.8497L73.4966 52.8847C77.2029 54.8907 79.512 58.7666 79.512 62.9809V84.9576H108.329V72.1657Z" fill="black"/>
<path id="Vector_3" d="M553.304 69.0325C550.429 69.0325 548.121 68.5269 546.385 67.5162C544.674 66.505 543.442 65.1312 542.692 63.3944C541.965 61.6576 541.604 59.584 541.604 57.1732V33.7274H534.836V26.7675H541.604V15.9971H549.805V26.7675H558.749V33.7274H549.805V56.7844C549.805 58.4175 550.274 59.6746 551.207 60.5563C552.14 61.4114 553.578 61.8391 555.52 61.8391C556.43 61.8391 557.478 61.7486 558.67 61.5671V68.216C556.779 68.7601 554.992 69.0325 553.304 69.0325Z" fill="black"/>
<path id="Vector_4" d="M513.996 69.4213C510.16 69.4213 506.7 68.5273 503.614 66.7385C500.556 64.9242 498.157 62.3709 496.422 59.0788C494.686 55.7609 493.816 51.9632 493.816 47.6861C493.816 43.3575 494.67 39.5469 496.382 36.2549C498.094 32.9629 500.493 30.4096 503.575 28.5951C506.661 26.7547 510.148 25.8345 514.036 25.8345C517.948 25.8345 521.435 26.7417 524.493 28.5562C527.551 30.3708 529.927 32.924 531.61 36.216C533.294 39.508 534.136 43.3317 534.136 47.6861C534.136 51.9894 533.282 55.7867 531.571 59.0788C529.859 62.3709 527.464 64.9242 524.378 66.7385C521.32 68.5273 517.857 69.4213 513.996 69.4213ZM513.996 62.5393C516.276 62.5393 518.313 61.9562 520.101 60.7898C521.916 59.5971 523.33 57.8865 524.338 55.6572C525.351 53.4021 525.856 50.7451 525.856 47.6861C525.856 44.5756 525.351 41.9058 524.338 39.6766C523.353 37.4214 521.955 35.6976 520.14 34.5052C518.349 33.3128 516.304 32.7166 513.996 32.7166C511.689 32.7166 509.627 33.3128 507.812 34.5052C506.025 35.6976 504.627 37.4214 503.614 39.6766C502.629 41.9058 502.137 44.5756 502.137 47.6861C502.137 50.7451 502.641 53.389 503.654 55.6183C504.663 57.8476 506.065 59.5581 507.852 60.7508C509.667 61.9431 511.717 62.5393 513.996 62.5393Z" fill="black"/>
<path id="Vector_5" d="M473.128 69.4213C471.261 69.4213 469.462 69.1492 467.723 68.6047C465.987 68.0606 464.406 67.2568 462.98 66.1939C461.578 65.1315 460.387 63.8225 459.402 62.2672H459.326V68.4884H451.121V12.42H459.326V32.9887H459.402C460.311 31.5371 461.451 30.2799 462.825 29.2171C464.2 28.1284 465.741 27.299 467.452 26.7287C469.188 26.1325 471.055 25.8344 473.048 25.8344C476.524 25.8344 479.582 26.7287 482.227 28.5173C484.896 30.3058 486.957 32.8591 488.411 36.1771C489.888 39.4691 490.627 43.3054 490.627 47.6861C490.627 52.1967 489.872 56.085 488.371 59.3508C486.866 62.6171 484.781 65.1184 482.112 66.8552C479.467 68.5658 476.472 69.4213 473.128 69.4213ZM470.717 62.1893C472.945 62.1893 474.943 61.6059 476.706 60.4394C478.47 59.273 479.84 57.6013 480.825 55.4237C481.814 53.2206 482.306 50.6283 482.306 47.6472C482.306 44.6665 481.826 42.0873 480.865 39.9097C479.907 37.7064 478.545 36.0215 476.782 34.8551C475.022 33.6886 473.013 33.1054 470.757 33.1054C468.398 33.1054 466.348 33.7145 464.613 34.9328C462.901 36.1511 461.566 37.862 460.609 40.0654C459.676 42.2684 459.207 44.8091 459.207 47.6861C459.207 50.6152 459.688 53.1817 460.645 55.3848C461.606 57.5624 462.941 59.2472 464.652 60.4394C466.388 61.6059 468.41 62.1893 470.717 62.1893Z" fill="black"/>
<path id="Vector_6" d="M426.125 69.4213C422.289 69.4213 418.829 68.5273 415.743 66.7385C412.685 64.9242 410.286 62.3709 408.551 59.0788C406.815 55.7609 405.945 51.9632 405.945 47.6861C405.945 43.3575 406.799 39.5469 408.511 36.2549C410.223 32.9629 412.622 30.4096 415.704 28.5951C418.79 26.7547 422.277 25.8345 426.165 25.8345C430.077 25.8345 433.564 26.7417 436.622 28.5562C439.68 30.3708 442.055 32.924 443.739 36.216C445.423 39.508 446.265 43.3317 446.265 47.6861C446.265 51.9894 445.411 55.7867 443.7 59.0788C441.988 62.3709 439.593 64.9242 436.507 66.7385C433.449 68.5273 429.986 69.4213 426.125 69.4213ZM426.125 62.5393C428.405 62.5393 430.442 61.9562 432.23 60.7898C434.045 59.5971 435.459 57.8865 436.467 55.6572C437.48 53.4021 437.984 50.7451 437.984 47.6861C437.984 44.5756 437.48 41.9058 436.467 39.6766C435.482 37.4214 434.084 35.6976 432.269 34.5052C430.478 33.3128 428.433 32.7166 426.125 32.7166C423.818 32.7166 421.756 33.3128 419.941 34.5052C418.154 35.6976 416.756 37.4214 415.743 39.6766C414.758 41.9058 414.266 44.5756 414.266 47.6861C414.266 50.7451 414.77 53.389 415.783 55.6183C416.792 57.8476 418.194 59.5581 419.981 60.7508C421.796 61.9431 423.845 62.5393 426.125 62.5393Z" fill="black"/>
<path id="Vector_7" d="M363.402 68.4884V12.42H386.304C389.881 12.42 392.953 13.0551 395.519 14.3253C398.087 15.5954 400.029 17.4229 401.351 19.8077C402.674 22.1665 403.333 24.9012 403.333 28.0118C403.333 30.2929 402.932 32.3537 402.13 34.1941C401.351 36.0345 400.223 37.5509 398.746 38.7433C397.268 39.9355 395.506 40.7783 393.458 41.2708V41.4261C396.362 42.0484 398.539 43.4869 399.989 45.742C401.466 47.9713 402.233 51.0819 402.285 55.0738C402.285 55.3848 402.285 55.683 402.285 55.9682C402.312 56.2275 402.324 56.4996 402.324 56.7848C402.428 59.8953 402.61 62.293 402.868 63.9778C403.127 65.6629 403.528 67.0367 404.072 68.0995V68.4884H395.48C395.04 67.3993 394.69 66.1423 394.43 64.7165C394.197 63.2911 394.016 61.4117 393.886 59.0788C393.86 58.5863 393.834 58.0807 393.808 57.5624C393.782 57.0437 393.756 56.4996 393.731 55.9293C393.705 53.3632 393.342 51.3281 392.642 49.8249C391.942 48.2954 390.866 47.1937 389.415 46.5197C387.989 45.8199 386.084 45.47 383.699 45.47H372.034V68.4884H363.402ZM384.982 38.1212C387.03 38.1212 388.779 37.7712 390.231 37.0714C391.683 36.3455 392.797 35.2828 393.575 33.883C394.352 32.4573 394.741 30.7724 394.741 28.8283C394.741 26.8324 394.34 25.1475 393.536 23.7736C392.732 22.3998 391.605 21.3889 390.153 20.7408C388.702 20.0669 386.978 19.7299 384.982 19.7299H372.034V38.1212H384.982Z" fill="black"/>
<path id="Vector_8" d="M323.644 83.6136V76.8868H326.637C328.789 76.8868 330.487 76.4853 331.731 75.6818C332.975 74.9042 333.96 73.5951 334.686 71.7547L335.891 68.683L320.027 26.7678H328.465L337.174 52.0022C337.952 54.3093 338.794 56.8758 339.702 59.7012H339.896C340.726 56.8758 341.529 54.3093 342.307 52.0022L350.861 26.7678H359.298L341.801 73.8152C340.583 77.0814 338.769 79.5311 336.358 81.1639C333.973 82.797 330.733 83.6136 326.637 83.6136H323.644Z" fill="black"/>
<path id="Vector_9" d="M302.66 69.4213C300.793 69.4213 298.992 69.1492 297.255 68.6047C295.518 68.0606 293.937 67.2572 292.511 66.1944C291.112 65.1315 289.919 63.8225 288.934 62.2672H288.857V83.6135H280.652V26.7676H288.857V32.9888H288.934C289.841 31.5372 290.982 30.28 292.356 29.2172C293.73 28.1285 295.272 27.2991 296.983 26.7288C298.719 26.1326 300.586 25.8345 302.582 25.8345C306.055 25.8345 309.114 26.7288 311.758 28.5174C314.428 30.3059 316.489 32.8592 317.94 36.1772C319.418 39.4692 320.157 43.3054 320.157 47.6862C320.157 52.1967 319.405 56.085 317.901 59.3508C316.398 62.6171 314.311 65.1184 311.641 66.8552C308.997 68.5662 306.003 69.4213 302.66 69.4213ZM300.249 62.1894C302.478 62.1894 304.474 61.6059 306.237 60.4395C307.999 59.273 309.373 57.6013 310.358 55.4237C311.343 53.2206 311.836 50.6283 311.836 47.6472C311.836 44.6665 311.356 42.0873 310.397 39.9097C309.438 37.7065 308.077 36.0216 306.315 34.8552C304.552 33.6887 302.543 33.1055 300.288 33.1055C297.929 33.1055 295.881 33.7146 294.144 34.9329C292.433 36.1512 291.099 37.862 290.139 40.0654C289.206 42.2688 288.74 44.8091 288.74 47.6862C288.74 50.6152 289.219 53.1817 290.178 55.3852C291.137 57.5624 292.472 59.2472 294.183 60.4395C295.92 61.6059 297.942 62.1894 300.249 62.1894Z" fill="black"/>
<path id="Vector_10" d="M258.007 69.4213C256.141 69.4213 254.339 69.1492 252.603 68.6047C250.866 68.0606 249.285 67.2572 247.859 66.1944C246.459 65.1315 245.267 63.8225 244.282 62.2672H244.204V83.6135H236V26.7676H244.204V32.9888H244.282C245.189 31.5372 246.329 30.28 247.704 29.2172C249.077 28.1285 250.62 27.2991 252.331 26.7288C254.067 26.1326 255.934 25.8345 257.929 25.8345C261.403 25.8345 264.461 26.7288 267.106 28.5174C269.776 30.3059 271.836 32.8592 273.288 36.1772C274.766 39.4692 275.504 43.3054 275.504 47.6862C275.504 52.1967 274.752 56.085 273.249 59.3508C271.745 62.6171 269.659 65.1184 266.989 66.8552C264.345 68.5662 261.351 69.4213 258.007 69.4213ZM255.596 62.1894C257.826 62.1894 259.822 61.6059 261.584 60.4395C263.347 59.273 264.721 57.6013 265.706 55.4237C266.691 53.2206 267.183 50.6283 267.183 47.6472C267.183 44.6665 266.704 42.0873 265.745 39.9097C264.786 37.7065 263.425 36.0216 261.662 34.8552C259.9 33.6887 257.89 33.1055 255.635 33.1055C253.277 33.1055 251.229 33.7146 249.492 34.9329C247.781 36.1512 246.446 37.862 245.487 40.0654C244.554 42.2688 244.087 44.8091 244.087 47.6862C244.087 50.6152 244.567 53.1817 245.526 55.3852C246.485 57.5624 247.82 59.2472 249.531 60.4395C251.268 61.6059 253.29 62.1894 255.596 62.1894Z" fill="black"/>
<path id="Vector_11" d="M208.282 69.266C205.586 69.266 203.227 68.7604 201.205 67.7496C199.184 66.7126 197.641 65.2741 196.578 63.4337C195.515 61.5674 194.984 59.4029 194.984 56.9404C194.984 53.337 196.125 50.5636 198.406 48.6195C200.687 46.6496 203.914 45.3405 208.088 44.6923L217.769 43.2538C218.78 43.1239 219.558 42.9297 220.102 42.6704C220.672 42.4114 221.074 42.0742 221.308 41.6596C221.567 41.2187 221.696 40.6746 221.696 40.0265C221.696 38.549 221.333 37.2659 220.608 36.1772C219.908 35.0625 218.884 34.2201 217.536 33.6498C216.214 33.0795 214.633 32.7944 212.792 32.7944C211.056 32.7944 209.539 33.0925 208.243 33.6887C206.947 34.2589 205.923 35.1014 205.171 36.216C204.42 37.3047 203.979 38.5879 203.849 40.0654H195.878C196.112 37.1362 196.941 34.6089 198.367 32.4833C199.819 30.3319 201.775 28.6858 204.238 27.5453C206.701 26.4048 209.552 25.8345 212.792 25.8345C216.318 25.8345 219.35 26.4177 221.891 27.5842C224.431 28.7247 226.362 30.3708 227.684 32.5222C229.006 34.6478 229.667 37.1492 229.667 40.0265V68.4884H221.696V62.3836H221.58C220.387 64.5612 218.651 66.2591 216.369 67.4772C214.114 68.6699 211.419 69.266 208.282 69.266ZM210.498 62.5782C212.883 62.5782 214.918 61.9947 216.603 60.8283C218.288 59.6618 219.558 58.1196 220.413 56.2013C221.269 54.2572 221.696 52.1578 221.696 49.9027V47.9197C221.333 48.2048 220.828 48.4511 220.18 48.6584C219.558 48.8657 218.793 49.0472 217.886 49.2025L209.098 50.5636C207.284 50.8488 205.832 51.4707 204.743 52.4299C203.655 53.3632 203.111 54.7239 203.111 56.5127C203.111 57.7566 203.396 58.8325 203.966 59.7397C204.562 60.6472 205.417 61.347 206.532 61.8395C207.673 62.3319 208.995 62.5782 210.498 62.5782Z" fill="black"/>
<path id="Vector_12" d="M146.082 68.4884V12.42H154.286V36.2937H180.648V12.42H188.891V68.4884H180.648V43.6426H154.286V68.4884H146.082Z" fill="black"/>
</g>
<defs>
<clipPath id="clip0_0_313">
<rect width="560" height="87.3759" fill="white"/>
</clipPath>
</defs>
</svg>
